<svg
            class="mySvg"
            width="69"
            height="64"
            viewBox="0 0 69 64"
            fill=""
            xmlns="http://www.w3.org/2000/svg"
          >
            <path
              class="mySvg"
              d="M21.5128 63.4254C17.7128 62.8254 15.0128 60.4254 15.0128 57.5254C15.0128 52.0254 14.8128 52.1254 34.6128 52.1254H53.0128L53.6128 54.6254C54.7128 59.2254 53.3128 61.9254 49.2128 63.0254C45.6128 64.1254 27.7128 64.3254 21.5128 63.4254Z"
              fill="#E7F0FD"
            />
            <path
              class="mySvg"
              d="M4.8127 53.4255C0.312698 48.6255 -0.887298 40.1255 0.612702 23.9255C1.2127 18.3255 1.6127 17.0254 3.3127 16.5254C6.7127 15.4254 7.7127 18.3255 8.3127 30.4255C8.5127 36.5255 9.2127 42.8255 9.8127 44.2255C10.9127 46.9255 9.6127 56.1255 8.1127 56.1255C7.7127 56.1255 6.2127 54.9255 4.8127 53.4255V53.4255Z"
              fill="#E7F0FD"
            />
            <path
              class="mySvg"
              d="M59.1125 51.6253C58.4125 48.8253 58.3125 46.4253 58.9125 45.3253C59.7125 43.7253 60.1125 40.8253 61.6125 24.1253C61.9125 20.5253 62.4125 17.3253 62.7125 16.9253C63.5125 15.4253 66.8125 16.1253 67.5125 17.9253C68.7125 21.0253 69.0125 42.5253 67.9125 46.7253C66.9125 50.6253 62.9125 56.1253 61.1125 56.1253C60.6125 56.1253 59.7125 54.1253 59.1125 51.6253V51.6253Z"
              fill="#E7F0FD"
            />
            <path
              class="mySvg"
              d="M16.6132 43.9255C14.9132 41.2255 14.1132 35.3255 13.9132 25.0255C13.7132 17.3255 12.0132 11.1255 10.0132 11.1255C8.11316 11.1255 9.01317 8.52547 11.8132 5.82547C16.5132 1.32547 20.7132 0.225467 34.2132 0.0254673C47.6132 -0.174533 51.0132 0.725467 56.8132 5.52547C60.6132 8.82547 60.7132 9.72548 57.9132 12.7255C56.1132 14.6255 55.7132 16.8255 55.0132 28.0255C53.8132 47.0255 54.9132 46.1255 34.5132 46.1255C18.5132 46.1255 18.0132 46.0255 16.6132 43.9255V43.9255Z"
              fill="#E7F0FD"
            />
          </svg>